<svg width="83" height="14" viewBox="0 0 83 14" fill="none" xmlns="http://www.w3.org/2000/svg">
<path d="M0.095459 1.74297V13.31H6.54959V11.4705H2.53756V1.74297H0.095459Z" fill="white"/>
<path d="M8.10179 13.31H10.5439V4.12928H8.10179V13.31ZM9.34029 3.03556C10.195 3.03556 10.8404 2.43898 10.8404 1.67668C10.8404 0.914389 10.195 0.31781 9.34029 0.31781C8.46811 0.31781 7.84014 0.914389 7.84014 1.67668C7.84014 2.43898 8.46811 3.03556 9.34029 3.03556Z" fill="white"/>
<path d="M11.9275 4.12928L15.486 13.31H18.4514L22.0274 4.12928H19.4283L16.9862 11.1722L14.5441 4.12928H11.9275Z" fill="white"/>
<path d="M27.5506 5.88587C28.8065 5.88587 29.8182 6.64817 29.8531 7.8579H25.2655C25.4573 6.59845 26.3818 5.88587 27.5506 5.88587ZM32.1382 10.4265H29.5042C29.1903 11.0396 28.6146 11.5368 27.568 11.5368C26.347 11.5368 25.3701 10.7745 25.248 9.41563H32.3127C32.365 9.11734 32.3824 8.81905 32.3824 8.52076C32.3824 5.78645 30.4113 3.98014 27.6203 3.98014C24.7596 3.98014 22.771 5.81959 22.771 8.71962C22.771 11.6031 24.8119 13.4591 27.6203 13.4591C30.0101 13.4591 31.6149 12.1168 32.1382 10.4265Z" fill="white"/>
<path d="M42.6774 9.96249C42.6774 5.88587 36.4326 7.17846 36.4326 4.85843C36.4326 3.91385 37.1478 3.46642 38.1072 3.49956C39.1538 3.51613 39.7992 4.11271 39.8516 4.87501H42.5379C42.3809 2.78698 40.6714 1.57725 38.177 1.57725C35.6651 1.57725 33.8859 2.8367 33.8859 4.92472C33.8684 9.11734 40.1481 7.60932 40.1481 10.1116C40.1481 10.9402 39.4678 11.5202 38.3165 11.5202C37.1827 11.5202 36.5373 10.9071 36.4675 9.97906H33.851C33.8859 12.1665 35.8395 13.426 38.3689 13.426C41.1424 13.426 42.6774 11.7854 42.6774 9.96249Z" fill="white"/>
<path d="M44.1667 8.71962C44.1667 11.6031 46.1552 13.4591 48.9462 13.4591C51.3534 13.4591 52.9757 12.1665 53.499 10.2111H50.865C50.5685 11.0396 49.9405 11.4705 48.9288 11.4705C47.5682 11.4705 46.6611 10.5094 46.6611 8.71962C46.6611 6.92989 47.5682 5.95216 48.9288 5.95216C49.9405 5.95216 50.5859 6.44931 50.865 7.22818H53.499C52.9757 5.17329 51.3534 3.98014 48.9462 3.98014C46.1552 3.98014 44.1667 5.83616 44.1667 8.71962Z" fill="white"/>
<path d="M64.6204 8.71962C64.6204 5.81959 62.4399 3.98014 59.6489 3.98014C56.858 3.98014 54.6775 5.81959 54.6775 8.71962C54.6775 11.6031 56.7882 13.4591 59.5792 13.4591C62.3876 13.4591 64.6204 11.6031 64.6204 8.71962ZM57.1545 8.71962C57.1545 6.88017 58.3232 6.00188 59.6141 6.00188C60.9049 6.00188 62.1085 6.88017 62.1085 8.71962C62.1085 10.5425 60.87 11.4374 59.5792 11.4374C58.2709 11.4374 57.1545 10.5425 57.1545 8.71962Z" fill="white"/>
<path d="M68.8538 8.73619C68.8538 6.96303 69.726 6.43274 71.1738 6.43274H71.8193V3.99671C70.4761 3.99671 69.4644 4.60986 68.8538 5.55444V4.12928H66.4117V13.31H68.8538V8.73619Z" fill="white"/>
<path d="M77.6157 5.88587C78.8716 5.88587 79.8834 6.64817 79.9183 7.8579H75.3306C75.5225 6.59845 76.447 5.88587 77.6157 5.88587ZM82.2034 10.4265H79.5694C79.2554 11.0396 78.6798 11.5368 77.6331 11.5368C76.4121 11.5368 75.4353 10.7745 75.3131 9.41563H82.3778C82.4301 9.11734 82.4476 8.81905 82.4476 8.52076C82.4476 5.78645 80.4764 3.98014 77.6855 3.98014C74.8247 3.98014 72.8362 5.81959 72.8362 8.71962C72.8362 11.6031 74.8771 13.4591 77.6855 13.4591C80.0752 13.4591 81.6801 12.1168 82.2034 10.4265Z" fill="white"/>
</svg>
